<svg width="94" height="91" viewBox="0 0 94 91" fill="none" xmlns="http://www.w3.org/2000/svg">
<rect width="94" height="91" fill="#563D7C"/>
<path d="M35.3137 39.2705V25.5761H47.779C48.9665 25.5761 50.111 25.6716 51.2133 25.8632C52.3157 26.0543 53.2911 26.3958 54.1391 26.888C54.9868 27.3802 55.6653 28.0635 56.1743 28.938C56.6829 29.8129 56.9376 30.9337 56.9376 32.3C56.9376 34.7602 56.1743 36.5372 54.6477 37.6304C53.1216 38.7239 51.1712 39.2705 48.7965 39.2705H35.3137ZM22 15.5714V74.1223H51.3407C54.0544 74.1223 56.6973 73.7944 59.2696 73.1382C61.8419 72.4821 64.1313 71.4709 66.1384 70.1042C68.145 68.7375 69.7423 66.9741 70.9294 64.8149C72.1169 62.6554 72.7103 60.0995 72.7103 57.1474C72.7103 53.4844 71.7915 50.3548 69.9544 47.7582C68.1169 45.1611 65.3325 43.3434 61.6013 42.3046C64.3149 41.0475 66.3646 39.4345 67.7497 37.4664C69.1345 35.4984 69.8271 33.0385 69.8271 30.086C69.8271 27.3526 69.3607 25.0567 68.4278 23.1978C67.495 21.3393 66.1806 19.8494 64.4845 18.7287C62.7888 17.6079 60.7536 16.8014 58.379 16.3096C56.0048 15.8174 53.3759 15.5714 50.4926 15.5714H22ZM35.3137 64.1176V48.0449H49.8141C52.6973 48.0449 55.0153 48.687 56.7681 49.9721C58.5204 51.2568 59.397 53.4024 59.397 56.4093C59.397 57.9403 59.1282 59.1975 58.5911 60.1815C58.054 61.1655 57.3333 61.9448 56.4286 62.5186C55.5243 63.0928 54.4782 63.5027 53.2911 63.7489C52.1036 63.9945 50.8602 64.1176 49.5598 64.1176H35.3137Z" fill="white"/>
</svg>
