<svg width="94" height="91" viewBox="0 0 94 91" fill="none" xmlns="http://www.w3.org/2000/svg">
<rect width="94" height="91" fill="#FFCA28"/>
<path d="M61.6316 73.8819L66.2972 70.805C66.6628 71.9499 68.9781 74.669 71.9028 74.669C74.8275 74.669 76.1854 73.0769 76.1854 72.0215C76.1854 69.1451 73.199 68.1309 71.7646 67.6438C71.5307 67.5644 71.3382 67.499 71.2065 67.4419C71.139 67.4125 71.0368 67.3736 70.9057 67.3237C69.3104 66.7162 63.4247 64.475 63.4247 57.9785C63.4247 50.8229 70.3534 50 71.9202 50C72.9453 50 77.8741 50.1252 80.3287 54.7227L75.8024 57.8712C74.8101 55.8676 73.1614 55.2057 72.1466 55.2057C69.6397 55.2057 69.1174 57.0375 69.1174 57.8712C69.1174 60.2108 71.8411 61.2594 74.1408 62.1448C74.7425 62.3765 75.3151 62.597 75.8024 62.8265C78.3093 64.0072 82 65.9391 82 72.0215C82 75.0679 79.4363 80 72.9822 80C64.3125 80 62.0146 74.8122 61.6316 73.8819Z" fill="white"/>
<path d="M39 74.4929L43.8628 71.4176C44.2438 72.5619 45.7244 74.6717 47.8728 74.6717C50.0211 74.6717 51.1207 72.4725 51.1207 71.4176V50.6767H57.1012V71.4176C57.198 74.2784 55.6061 80 48.5804 80C42.1209 80 39.4355 76.1737 39 74.4929Z" fill="white"/>
</svg>
