<svg width="94" height="91" viewBox="0 0 94 91" fill="none" xmlns="http://www.w3.org/2000/svg">
<rect width="94" height="91" fill="#1266A9"/>
<path d="M18.7488 57.2566C18.8101 57.3952 18.8794 57.5232 18.9541 57.6512C18.9888 57.7259 19.0368 57.8032 19.0794 57.8726C19.1488 58.0112 19.2234 58.1446 19.2954 58.2779L19.7141 58.9819C19.7914 59.1126 19.8661 59.2406 19.9541 59.3686C20.1008 59.6193 20.2741 59.8646 20.4261 60.1153C20.4954 60.2193 20.5594 60.3233 20.6368 60.4273C20.9301 60.8833 21.1968 61.2619 21.4821 61.6299C21.6848 61.9046 21.8875 62.1739 22.1061 62.4433C22.1781 62.5446 22.2581 62.646 22.3328 62.7473L22.9221 63.462C22.9941 63.5446 23.0661 63.6406 23.1435 63.726C23.4048 64.0406 23.6821 64.3446 23.9595 64.654C23.9595 64.6593 23.9675 64.6646 23.9728 64.6726C24.3168 65.1046 24.6875 65.4886 25.0928 65.83L25.1035 65.8406C25.3168 66.0593 25.5302 66.2753 25.7568 66.4887L26.0262 66.7473C26.3222 67.0247 26.6182 67.2993 26.9302 67.566C26.9355 67.566 26.9382 67.5713 26.9435 67.574L27.0955 67.7073C27.3675 67.9447 27.6422 68.1793 27.9222 68.398L28.2555 68.678C28.4822 68.8593 28.7169 69.03 28.9489 69.2087L29.3115 69.486C29.5595 69.6727 29.8235 69.854 30.0769 70.0353C30.1702 70.102 30.2635 70.1687 30.3595 70.23L30.4369 70.2913L31.1862 70.782L31.5062 70.9954C31.8982 71.246 32.2876 71.4807 32.6769 71.7154C32.7889 71.7714 32.9009 71.8327 33.0049 71.8967C33.2929 72.062 33.5916 72.23 33.8822 72.382C34.0422 72.4727 34.2076 72.55 34.3729 72.6327C34.5729 72.7447 34.7809 72.854 34.9943 72.966C35.0529 72.9847 35.1009 73.0034 35.1489 73.03L35.1596 73.0194C35.2476 73.0594 35.3303 73.102 35.4156 73.1447C35.7356 73.3047 36.0689 73.4567 36.4156 73.606C36.4796 73.6327 36.5489 73.6594 36.6183 73.6967C37.0023 73.8647 37.3863 74.0247 37.7836 74.1794C37.8743 74.2061 37.9703 74.2514 38.0636 74.2861C38.4236 74.4221 38.7943 74.5607 39.1623 74.6914L39.2956 74.7394C39.7036 74.8781 40.1063 75.0114 40.5223 75.1367C40.6183 75.1634 40.717 75.1981 40.8183 75.2247C41.2423 75.3527 41.653 75.5047 42.0823 75.5847C69.4773 80.5528 77.4374 59.1953 77.4374 59.1953C70.7493 67.862 58.8798 70.1473 47.6397 67.6033C47.2237 67.5073 46.8077 67.374 46.3864 67.2513C45.7917 67.083 45.2021 66.8972 44.6184 66.694L44.8717 66.7713L44.7064 66.7073C44.3437 66.5846 43.9944 66.4487 43.6397 66.3127C43.5529 66.2758 43.4648 66.242 43.3757 66.2113L43.3463 66.2033C42.9543 66.046 42.573 65.886 42.1943 65.718C42.1117 65.6913 42.0423 65.654 41.9597 65.622C41.5111 65.4265 41.0666 65.222 40.6263 65.0086L40.9943 65.1713C40.8983 65.1289 40.804 65.0826 40.7117 65.0326C40.461 64.9153 40.2103 64.782 39.965 64.6566C39.7781 64.5681 39.594 64.4738 39.413 64.374L39.4663 64.4006C39.165 64.2406 38.8636 64.0673 38.5596 63.9046C38.469 63.8406 38.365 63.7873 38.261 63.7286C37.8091 63.466 37.3628 63.1939 36.9223 62.9126L37.0903 63.0139C36.9774 62.9442 36.8671 62.8704 36.7596 62.7926L36.7756 62.8033C36.489 62.6272 36.208 62.4423 35.9329 62.2486C35.8423 62.1899 35.7596 62.1259 35.6663 62.0619C35.379 61.8658 35.0962 61.6631 34.8183 61.4539L34.8823 61.4993C34.7703 61.4086 34.6503 61.3233 34.5303 61.2353C34.2956 61.0513 34.0582 60.8753 33.8236 60.6833L33.5089 60.4326C33.1735 60.1658 32.8446 59.891 32.5222 59.6086L32.5196 59.6059L31.5942 58.7659L31.3276 58.5152C31.1089 58.2939 30.8849 58.0832 30.6609 57.8646L30.4022 57.5979C30.1261 57.3245 29.8567 57.0444 29.5942 56.7579L29.5782 56.7392L29.5329 56.7019C29.2505 56.3918 28.9723 56.078 28.6982 55.7606C28.6262 55.6779 28.5595 55.5899 28.4849 55.5019L27.8795 54.7685C27.6066 54.4258 27.3399 54.0782 27.0795 53.7259L26.9728 53.5765C20.7381 45.1071 18.4821 33.419 23.4715 23.8296L19.0661 29.4003C13.3994 37.5044 14.1007 48.0431 18.4341 56.6486C18.5327 56.8592 18.6421 57.0566 18.7488 57.2566V57.2566Z" fill="white"/>
<path d="M40.8156 49.0803L41.0556 49.3203C41.3596 49.6137 41.6716 49.899 41.989 50.1843L42.029 50.219C42.349 50.5017 42.709 50.7977 43.0797 51.0857L43.1357 51.1284C43.2263 51.1897 43.3037 51.2617 43.3917 51.323C43.765 51.611 44.141 51.8857 44.533 52.1604L44.573 52.1844C44.7383 52.3044 44.9143 52.4137 45.101 52.531C45.1757 52.579 45.261 52.643 45.341 52.691C45.6237 52.8724 45.901 53.0404 46.1863 53.2137C46.2317 53.2324 46.2717 53.2564 46.3144 53.275C46.5544 53.4217 46.8157 53.563 47.0664 53.691C47.1544 53.7444 47.2397 53.7844 47.3304 53.835C47.509 53.9231 47.685 54.0164 47.8557 54.1071L47.941 54.1444C48.301 54.3204 48.669 54.4857 49.029 54.6484C49.1197 54.6831 49.197 54.7124 49.2744 54.7497C49.5704 54.8777 49.8717 55.0004 50.1677 55.1124C50.3011 55.1577 50.4264 55.2111 50.5517 55.2511C50.8237 55.3524 51.1091 55.4457 51.3784 55.5391L51.7517 55.6591C52.1411 55.7791 52.5357 55.9364 52.9491 56.0004C74.104 59.4831 79 43.2776 79 43.2776C74.592 49.5897 66.0612 52.5977 56.9705 50.2483C56.5167 50.1339 56.0666 50.0049 55.6211 49.8617L55.7731 49.9043C55.6451 49.8697 55.5331 49.8297 55.4104 49.7923C55.1331 49.6963 54.8478 49.603 54.5784 49.5043L54.1944 49.3603C53.8958 49.2403 53.5918 49.1283 53.3011 49.0003C53.2104 48.9603 53.1278 48.9337 53.0584 48.8937C52.6851 48.7257 52.3091 48.5603 51.9437 48.3843L51.3944 48.099L51.0771 47.939C50.8317 47.811 50.6051 47.6777 50.3704 47.5417C50.3105 47.5135 50.2526 47.4815 50.1971 47.4457L50.2051 47.4483C49.9224 47.2723 49.629 47.1016 49.357 46.923C49.2664 46.8723 49.1837 46.811 49.0984 46.7576L48.5437 46.3976C48.1597 46.131 47.7837 45.8456 47.4024 45.5683C47.317 45.491 47.2344 45.427 47.1517 45.3576C43.1543 42.2296 40.0023 37.9549 38.5063 33.1148C36.9303 28.0828 37.2769 22.4401 39.9996 17.8614L36.6529 22.5761C32.5436 28.4455 32.7756 36.2909 35.9756 42.4989C36.5596 43.6456 37.1516 44.6136 37.8049 45.5363C38.4129 46.4056 39.0849 47.4243 39.8956 48.123C40.1836 48.451 40.493 48.763 40.8156 49.0803V49.0803Z" fill="white"/>
<path d="M51.4424 17.472C49.0184 21.0107 48.7864 25.4054 50.4557 29.3068C52.2291 33.4508 55.8531 36.7042 60.0772 38.2456C60.2505 38.3122 60.4185 38.3682 60.5972 38.4322L60.8318 38.5042C61.0772 38.5816 61.3252 38.6722 61.5785 38.7282C73.2613 40.9709 76.424 32.7602 77.2747 31.5522C74.4933 35.5255 69.8293 36.4802 64.1065 35.0962C63.6089 34.9749 63.1191 34.8235 62.6399 34.6429L62.7279 34.6722C62.1315 34.4658 61.5474 34.2254 60.9785 33.9522L61.0798 33.9975C59.9865 33.4642 59.0478 32.8882 58.1758 32.2268C53.0611 28.3601 49.8984 20.9974 53.2371 15L51.4424 17.472Z" fill="white"/>
</svg>
