<svg width="94" height="91" viewBox="0 0 94 91" fill="none" xmlns="http://www.w3.org/2000/svg">
<rect width="94" height="91" fill="#201F1F"/>
<path d="M47 52.5155C50.6024 52.5155 53.5228 49.5952 53.5228 45.9928C53.5228 42.3904 50.6024 39.47 47 39.47C43.3976 39.47 40.4773 42.3904 40.4773 45.9928C40.4773 49.5952 43.3976 52.5155 47 52.5155Z" fill="#61DAFB"/>
<path d="M47 59.3564C66.33 59.3564 82 53.3733 82 45.9927C82 38.6122 66.33 32.6291 47 32.6291C27.67 32.6291 12 38.6122 12 45.9927C12 53.3733 27.67 59.3564 47 59.3564Z" stroke="#61DAFB" stroke-width="5"/>
<path d="M35.4267 52.6745C45.0917 69.4148 58.1082 79.9939 64.5 76.3036C70.8917 72.6133 68.2382 56.0511 58.5732 39.3109C48.9082 22.5706 35.8917 11.9916 29.5 15.6818C23.1082 19.3721 25.7617 35.9343 35.4267 52.6745Z" stroke="#61DAFB" stroke-width="5"/>
<path d="M35.4267 39.3108C25.7618 56.0511 23.1083 72.6133 29.5 76.3035C35.8917 79.9938 48.9083 69.4147 58.5732 52.6745C68.2382 35.9342 70.8917 19.372 64.5 15.6818C58.1083 11.9915 45.0917 22.5706 35.4267 39.3108Z" stroke="#61DAFB" stroke-width="5"/>
</svg>
