<svg width="104" height="104" viewBox="0 0 104 104" fill="none" xmlns="http://www.w3.org/2000/svg">
<g id="adobe">
<path id="bg" d="M6.5 39.4333C6.5 27.9056 6.5 22.1417 8.74345 17.7387C10.7168 13.8657 13.8657 10.7168 17.7387 8.74345C22.1417 6.5 27.9056 6.5 39.4333 6.5H64.5667C76.0944 6.5 81.8583 6.5 86.2613 8.74345C90.1343 10.7168 93.2832 13.8657 95.2566 17.7387C97.5 22.1417 97.5 27.9056 97.5 39.4333V64.5667C97.5 76.0944 97.5 81.8583 95.2566 86.2613C93.2832 90.1343 90.1343 93.2832 86.2613 95.2566C81.8583 97.5 76.0944 97.5 64.5667 97.5H39.4333C27.9056 97.5 22.1417 97.5 17.7387 95.2566C13.8657 93.2832 10.7168 90.1343 8.74345 86.2613C6.5 81.8583 6.5 76.0944 6.5 64.5667V39.4333Z" fill="#E6001F"/>
<path id="adobe_2" d="M22.75 74.75C22.75 74.75 42.9672 26.0128 42.9192 26H42.9192C42.9192 26 42.9192 26 42.9192 26H58.2728L81.25 74.75L63.8954 74.75C63.9082 74.7758 50.8828 44.838 50.7195 44.537C50.6911 44.7981 42.0823 64.8346 41.9784 64.8593H51.2558C51.2136 64.9101 55.2897 74.657 55.2897 74.75L22.75 74.75Z" fill="white"/>
</g>
</svg>
