<svg width="103" height="103" viewBox="0 0 103 103" fill="none" xmlns="http://www.w3.org/2000/svg">
<rect x="4.3335" y="52.21" width="66.9836" height="67.6877" rx="10" transform="rotate(-45.905 4.3335 52.21)" fill="#EE513B"/>
<path d="M39.1055 16.2922L35.1937 20.204L45.297 30.3074C44.8884 31.1843 44.6601 32.1622 44.6601 33.1934C44.6601 36.1211 46.4996 38.6192 49.0859 39.595V64.3103C46.4996 65.2861 44.6601 67.7842 44.6601 70.7119C44.6601 74.4895 47.7225 77.5518 51.5 77.5518C55.2775 77.5518 58.3398 74.4895 58.3398 70.7119C58.3398 68.0576 56.8278 65.7564 54.6182 64.6226V39.6285L64.2761 49.2865C63.8873 50.1455 63.6709 51.0993 63.6709 52.1035C63.6709 55.8811 66.7332 58.9434 70.5107 58.9434C74.2883 58.9434 77.3506 55.8811 77.3506 52.1035C77.3506 48.326 74.2883 45.2637 70.5107 45.2637C69.7767 45.2637 69.0696 45.3793 68.4068 45.5934L58.0343 35.2209C58.2329 34.5803 58.3398 33.8993 58.3398 33.1934C58.3398 29.4158 55.2775 26.3535 51.5 26.3535C50.794 26.3535 50.1131 26.4605 49.4724 26.6591L39.1055 16.2922Z" fill="white"/>
</svg>
