<svg width="104" height="104" viewBox="0 0 104 104" fill="none" xmlns="http://www.w3.org/2000/svg">
<path d="M77 7H27C15.9543 7 7 15.9543 7 27V77C7 88.0457 15.9543 97 27 97H77C88.0457 97 97 88.0457 97 77V27C97 15.9543 88.0457 7 77 7Z" fill="#F7DF1E"/>
<path d="M63.9612 79.3438C65.9049 78.2146 68.2976 78.9694 70.0085 80.4275C71.4744 81.6769 73.3157 82.4485 75.7999 82.4485C79.3042 82.4485 81.5428 80.6971 81.5428 78.2771C81.5428 75.3771 79.2428 74.35 75.3857 72.6628L73.2714 71.7557C67.1685 69.1557 63.1142 65.8985 63.1142 59.0128C63.1142 52.67 67.9471 47.8414 75.4999 47.8414C79.6078 47.8414 82.8336 48.9336 85.3696 51.6339C86.7849 53.1409 86.166 55.4877 84.4264 56.6047V56.6047C82.5384 57.8169 80.1757 56.8765 78.1963 55.8201C77.4161 55.4038 76.5368 55.2171 75.4999 55.2171C73.0228 55.2171 71.4528 56.7885 71.4528 58.8414C71.4528 61.3785 73.0242 62.4057 76.6528 63.9771L78.7671 64.8828C85.9528 67.9643 90.0099 71.1057 90.0099 78.1685C90.0099 85.7828 84.0285 89.9543 75.9957 89.9543C69.9848 89.9543 65.6021 87.7621 62.7631 84.5343C61.3151 82.8879 62.0654 80.4452 63.9612 79.3438V79.3438ZM33.9084 80.2694C35.9182 79.0526 38.2675 80.0329 40.1302 81.4646C40.8858 82.0453 41.8058 82.3957 43.0242 82.3957C45.8028 82.3957 47.5557 81.3085 47.5557 77.0814V52.5528C47.5557 50.2175 49.4489 48.3243 51.7842 48.3243V48.3243C54.1196 48.3243 56.0128 50.2174 56.0128 52.5528V77.1957C56.0128 85.9528 50.8785 89.9385 43.3842 89.9385C38.4097 89.9385 34.9733 88.0473 32.7091 85.3702C31.3317 83.7416 32.0838 81.374 33.9084 80.2694V80.2694Z" fill="white"/>
</svg>
