<svg width="103" height="103" viewBox="0 0 103 103" fill="none" xmlns="http://www.w3.org/2000/svg">
<path d="M60.1227 51.4224C60.1227 46.8054 56.2624 43.0621 51.5 43.0621C46.738 43.0621 42.8773 46.8054 42.8773 51.4224C42.8773 56.0399 46.738 59.7832 51.5 59.7832C56.2624 59.7832 60.1227 56.0399 60.1227 51.4224Z" fill="#53C1DE"/>
<path fill-rule="evenodd" clip-rule="evenodd" d="M79.5043 35.901C81.3253 28.7266 83.6142 15.4226 75.5453 10.9121C67.5143 6.42124 57.0634 15.0265 51.5449 20.1918C46.0424 15.078 35.2979 6.50949 27.2359 11.0343C19.2079 15.5402 21.6836 28.6237 23.5448 35.843C16.0561 37.9053 3.21875 42.3472 3.21875 51.4224C3.21875 60.472 16.0428 65.3046 23.4871 67.3649C21.619 74.6242 19.2673 87.5208 27.3055 92.0165C35.3975 96.5405 46.1087 88.1761 51.6782 82.9543C57.2321 88.1499 67.5828 96.5692 75.6154 92.0608C83.6735 87.5381 81.5746 74.4123 79.7133 67.1511C86.9296 65.0863 99.7812 60.359 99.7812 51.4224C99.7812 42.4343 86.8751 37.9564 79.5043 35.901ZM78.5898 63.303C77.3675 59.5519 75.718 55.563 73.7 51.4423C75.6261 47.419 77.2116 43.4815 78.3996 39.7544C83.803 41.2733 95.6565 44.7448 95.6565 51.4224C95.6565 58.1627 84.2818 61.6671 78.5898 63.303ZM73.5483 88.5994C67.5553 91.9629 58.6525 83.9117 54.5509 80.0854C57.2718 77.1998 59.991 73.8453 62.6449 70.1203C67.3133 69.7188 71.7235 69.0621 75.7231 68.1658C77.0332 73.3019 79.5682 85.2205 73.5483 88.5994ZM29.3666 88.5513C23.3727 85.2004 26.1124 73.6921 27.4867 68.3448C31.4419 69.193 35.8201 69.8033 40.4996 70.1713C43.1709 73.8163 45.9688 77.1667 48.7885 80.1007C45.3047 83.3681 35.3886 91.9179 29.3666 88.5513ZM7.34354 51.4224C7.34354 44.6568 19.126 41.2107 24.6525 39.6956C25.8611 43.5063 27.4461 47.4907 29.359 51.5198C27.4213 55.609 25.8136 59.6568 24.594 63.5123C19.3244 62.0499 7.34354 58.1922 7.34354 51.4224ZM29.3025 14.4958C35.321 11.1181 44.6592 19.3441 48.6543 23.0467C45.8491 25.9674 43.0769 29.2925 40.4286 32.9164C35.8872 33.3246 31.5397 33.9801 27.5431 34.8581C26.0437 29.0354 23.2906 17.8698 29.3025 14.4958ZM65.5957 37.2638C68.6769 37.6408 71.6287 38.1422 74.4005 38.7558C73.5684 41.3418 72.5312 44.0458 71.3099 46.8178C69.5391 43.5602 67.6384 40.3683 65.5957 37.2638ZM51.5462 25.9048C53.4487 27.9032 55.3543 30.1349 57.2286 32.5559C53.4265 32.3817 49.618 32.3809 45.8158 32.5535C47.6919 30.1548 49.6137 27.9264 51.5462 25.9048ZM31.7256 46.8149C30.5243 44.0524 29.4966 41.3364 28.6572 38.7136C31.4124 38.1157 34.3504 37.6272 37.4115 37.2563C35.3632 40.354 33.4657 43.5448 31.7256 46.8149ZM37.4996 65.8741C34.3372 65.5318 31.3547 65.0682 28.6004 64.4868C29.453 61.8176 30.5034 59.0431 31.7303 56.2214C33.4944 59.5253 35.4207 62.7471 37.4996 65.8741ZM51.6603 77.2226C49.7051 75.177 47.7551 72.9147 45.8504 70.4812C49.6744 70.6269 53.5057 70.6272 57.3291 70.4617C55.4487 72.9395 53.55 75.2052 51.6603 77.2226ZM71.3492 56.0776C72.6398 58.93 73.7278 61.6896 74.5919 64.3136C71.7919 64.9331 68.7692 65.432 65.5842 65.8024C67.6421 62.6392 69.5728 59.3976 71.3492 56.0776ZM60.3427 66.2872C54.4939 66.6923 48.6081 66.6881 42.7573 66.3203C39.4325 61.6115 36.4731 56.6595 33.9184 51.5186C36.4606 46.3882 39.3987 41.446 42.7077 36.7446C48.563 36.3154 54.4542 36.3144 60.3094 36.7471C63.5898 41.4482 66.5235 46.3776 69.1248 51.4618C66.5544 56.5896 63.601 61.5418 60.3427 66.2872ZM73.4851 14.3769C79.5051 17.7435 76.8254 29.7003 75.5103 34.8995C71.5043 34.0033 67.1539 33.3362 62.5992 32.9218C59.9457 29.2586 57.1966 25.9276 54.4368 23.0446C58.4832 19.2623 67.5232 11.0432 73.4851 14.3769Z" fill="#53C1DE"/>
</svg>
