<svg width="103" height="117" viewBox="0 0 103 117" fill="none" xmlns="http://www.w3.org/2000/svg">
<path d="M51.5 0L0 29.25V87.75L51.5 117L103 87.75V29.25L51.5 0Z" fill="white"/>
<path d="M9.19688 85.7317L49.8006 108.79V90.8309L24.5022 76.8592L9.19688 85.7317ZM6.4194 83.2064V34.9829L21.278 43.5922V74.5874L6.4194 83.2064ZM93.9684 85.7317L53.3647 108.79V90.8309L78.6631 76.8592L93.9684 85.7317ZM96.7459 83.2064V34.9829L81.8873 43.5922V74.5874L96.7459 83.2064ZM95.0076 31.8629L53.3647 8.20941V25.5742L80.0422 40.3064L80.2461 40.4234L95.0076 31.8629ZM8.15775 31.8629L49.8006 8.20941V25.5742L23.1232 40.3064L22.9192 40.4234L8.15775 31.8629Z" fill="#8ED6FB"/>
<path d="M53.3646 86.7457L78.3231 72.969V45.669L53.3646 60.138V86.7457ZM49.8004 86.7457L24.8419 72.969V45.669L49.8004 60.138V86.7457ZM76.6333 42.51L51.5776 28.6747L26.522 42.51L51.5776 57.0375L76.6333 42.51Z" fill="#1C78C0"/>
</svg>
