<svg width="100" height="100" viewBox="0 0 100 100" fill="none" xmlns="http://www.w3.org/2000/svg">
<path d="M90 0H10C4.47715 0 0 4.47716 0 10V90C0 95.5229 4.47716 100 10 100H90C95.5229 100 100 95.5229 100 90V10C100 4.47715 95.5229 0 90 0Z" fill="#F7DF1E"/>
<path d="M63.2903 80.382C65.45 79.1274 68.1085 79.9661 70.0094 81.5862C71.6383 82.9744 73.6842 83.8318 76.4444 83.8318C80.3381 83.8318 82.8254 81.8857 82.8254 79.1969C82.8254 75.9746 80.2698 74.8334 75.9841 72.9588L73.6349 71.9508C66.8539 69.0619 62.3492 65.4429 62.3492 57.7921C62.3492 50.7445 67.719 45.3794 76.1111 45.3794C80.6754 45.3794 84.2596 46.593 87.0774 49.5933C88.6499 51.2677 87.9623 53.8753 86.0294 55.1163V55.1163C83.9316 56.4633 81.3063 55.4183 79.107 54.2447C78.2402 53.7821 77.2632 53.5746 76.1111 53.5746C73.3587 53.5746 71.6143 55.3207 71.6143 57.6016C71.6143 60.4207 73.3603 61.5619 77.392 63.308L79.7413 64.3143C87.7254 67.7381 92.2333 71.2286 92.2333 79.0762C92.2333 87.5365 85.5873 92.1715 76.6619 92.1715C69.9831 92.1715 65.1135 89.7358 61.959 86.1493C60.3501 84.32 61.1839 81.6058 63.2903 80.382V80.382ZM29.8983 81.4105C32.1313 80.0585 34.7417 81.1477 36.8114 82.7385C37.651 83.3837 38.6732 83.773 40.027 83.773C43.1143 83.773 45.0619 82.5651 45.0619 77.8683V50.6143C45.0619 48.0194 47.1654 45.9159 49.7603 45.9159V45.9159C52.3552 45.9159 54.4587 48.0194 54.4587 50.6143V77.9953C54.4587 87.7254 48.7539 92.154 40.427 92.154C34.8997 92.154 31.0814 90.0526 28.5657 87.078C27.0353 85.2685 27.8709 82.6378 29.8983 81.4105V81.4105Z" fill="black"/>
</svg>
