<svg width="94" height="91" viewBox="0 0 94 91" fill="none" xmlns="http://www.w3.org/2000/svg">
<rect width="94" height="91" fill="#8892BF"/>
<path d="M42.8053 29.875H47.3204L46.0444 36.6588H50.1015C52.3263 36.7064 53.9838 37.2037 55.0747 38.1506C56.1871 39.0975 56.5143 40.8975 56.0562 43.5492L53.8641 55.3766H49.2835L51.3775 44.082C51.5954 42.8979 51.53 42.0575 51.1812 41.5603C50.8324 41.063 50.0799 40.8144 48.9236 40.8144L45.2919 40.7789L42.609 55.3766H38.0939L42.8053 29.875Z" fill="white"/>
<path fill-rule="evenodd" clip-rule="evenodd" d="M22.1162 36.659H30.8847C33.4584 36.6824 35.3233 37.4879 36.4796 39.0742C37.6358 40.6604 38.0173 42.8269 37.6247 45.5739C37.4722 46.829 37.1339 48.0601 36.6104 49.2677C36.1085 50.4753 35.411 51.5642 34.5165 52.5353C33.4256 53.7663 32.2589 54.5477 31.0156 54.8794C29.7723 55.2111 28.4852 55.3767 27.1548 55.3767H23.2286L21.9853 62.125H17.4375L22.1162 36.659ZM23.9812 51.3632L25.9377 40.7435H26.5986C26.8388 40.7435 27.0894 40.7314 27.3511 40.708C29.0963 40.6845 30.5464 40.8621 31.7027 41.2407C32.8805 41.6193 33.2732 43.0521 32.8805 45.5383C32.4009 48.4983 31.4625 50.2266 30.0668 50.7239C28.671 51.1977 26.9258 51.4222 24.8318 51.3987H24.3738C24.2429 51.3987 24.112 51.3867 23.9812 51.3632Z" fill="white"/>
<path fill-rule="evenodd" clip-rule="evenodd" d="M69.6732 36.659H60.9047L56.226 62.125H60.7738L62.0171 55.3767H65.9433C67.2737 55.3767 68.5608 55.2111 69.8041 54.8794C71.0474 54.5477 72.2141 53.7663 73.3049 52.5353C74.1994 51.5642 74.897 50.4753 75.3989 49.2677C75.9224 48.0601 76.2607 46.829 76.4132 45.5739C76.8058 42.8269 76.4243 40.6604 75.268 39.0742C74.1118 37.4879 72.2468 36.6824 69.6732 36.659ZM64.7262 40.7435L62.7696 51.3632C62.9005 51.3867 63.0314 51.3987 63.1623 51.3987H63.6203C65.7143 51.4222 67.4595 51.1977 68.8552 50.7239C70.251 50.2266 71.1894 48.4983 71.669 45.5383C72.0616 43.0521 71.669 41.6193 70.4912 41.2407C69.3349 40.8621 67.8848 40.6845 66.1396 40.708C65.8779 40.7314 65.6272 40.7435 65.3871 40.7435H64.7262Z" fill="white"/>
</svg>
