<svg width="94" height="91" viewBox="0 0 94 91" fill="none" xmlns="http://www.w3.org/2000/svg">
<rect width="94" height="91" fill="#028CB0"/>
<path d="M17.4985 46C17.4985 57.6908 24.2985 67.76 34.1323 72.5462L20.0615 33.9954C18.3719 37.772 17.4985 41.8627 17.4985 46ZM47 75.5015C50.4262 75.5015 53.7215 74.9 56.8077 73.8277L56.5985 73.4354L47.5231 48.5892L38.6831 74.2985C41.2985 75.0831 44.0969 75.5015 47 75.5015ZM51.0538 32.1646L61.7246 63.8892L64.68 54.0554C65.9354 49.9754 66.9031 47.0462 66.9031 44.5092C66.9031 40.8477 65.5954 38.3369 64.4969 36.4015C62.98 33.9431 61.5938 31.8769 61.5938 29.4708C61.5938 26.7508 63.6338 24.24 66.5631 24.24H66.9292C61.4933 19.2496 54.3793 16.4862 47 16.4985C42.114 16.4975 37.3043 17.7113 33.0038 20.0305C28.7033 22.3497 25.0467 25.7016 22.3631 29.7846L24.2462 29.8369C27.3323 29.8369 32.0923 29.4446 32.0923 29.4446C33.7138 29.3662 33.8969 31.6938 32.3015 31.8769C32.3015 31.8769 30.7062 32.0862 28.9015 32.1646L39.6769 64.1246L46.1369 44.7708L41.5338 32.1646C40.5028 32.1077 39.4736 32.0205 38.4477 31.9031C36.8523 31.7985 37.0354 29.3662 38.6308 29.4446C38.6308 29.4446 43.4954 29.8369 46.3985 29.8369C49.4846 29.8369 54.2446 29.4446 54.2446 29.4446C55.84 29.3662 56.0492 31.6938 54.4538 31.8769C54.4538 31.8769 52.8585 32.06 51.0538 32.1646ZM61.8292 71.5C66.2922 68.905 69.9961 65.1842 72.5708 60.7094C75.1455 56.2347 76.5009 51.1626 76.5015 46C76.5015 40.8738 75.1938 36.0615 72.8923 31.8508C73.3597 36.4834 72.6583 41.1592 70.8523 45.4508L61.8292 71.5ZM47 80C37.9826 80 29.3346 76.4179 22.9584 70.0416C16.5821 63.6654 13 55.0174 13 46C13 36.9826 16.5821 28.3346 22.9584 21.9584C29.3346 15.5821 37.9826 12 47 12C56.0174 12 64.6654 15.5821 71.0416 21.9584C77.4179 28.3346 81 36.9826 81 46C81 55.0174 77.4179 63.6654 71.0416 70.0416C64.6654 76.4179 56.0174 80 47 80Z" fill="white"/>
</svg>
