<svg width="94" height="91" viewBox="0 0 94 91" fill="none" xmlns="http://www.w3.org/2000/svg">
<rect width="94" height="91" fill="#FF2D20"/>
<path d="M79.9633 27.1572C79.9874 27.2465 79.9998 27.3386 80 27.4311V41.8125C80 41.9971 79.9513 42.1784 79.8589 42.3381C79.7665 42.4978 79.6337 42.6303 79.4738 42.7221L67.4186 49.6716V63.4461C67.4186 63.821 67.2197 64.167 66.895 64.3558L41.731 78.8603C41.6734 78.8931 41.6105 78.9141 41.5477 78.9364C41.5241 78.9442 41.5019 78.9587 41.477 78.9652C41.3011 79.0116 41.1162 79.0116 40.9403 78.9652C40.9115 78.9573 40.8853 78.9416 40.8578 78.9311C40.8002 78.9102 40.74 78.8918 40.685 78.8603L15.5262 64.3558C15.3664 64.2638 15.2336 64.1313 15.1412 63.9716C15.0488 63.8119 15.0001 63.6307 15 63.4461V20.302C15 20.2076 15.0131 20.1159 15.0367 20.0268C15.0445 19.9966 15.0628 19.9691 15.0733 19.9389C15.0929 19.8839 15.1113 19.8275 15.1401 19.7764C15.1597 19.7423 15.1885 19.7148 15.2121 19.6834C15.2422 19.6414 15.2697 19.5982 15.305 19.5615C15.3351 19.5313 15.3744 19.509 15.4084 19.4828C15.4464 19.4514 15.4804 19.4173 15.5236 19.3924H15.5249L28.105 12.1401C28.2643 12.0483 28.4448 12 28.6286 12C28.8124 12 28.9929 12.0483 29.1522 12.1401L41.7323 19.3924H41.7349C41.7768 19.4186 41.8121 19.4514 41.8501 19.4815C41.8841 19.5077 41.9221 19.5313 41.9522 19.5601C41.9889 19.5982 42.015 19.6414 42.0465 19.6834C42.0687 19.7148 42.0988 19.7423 42.1172 19.7764C42.1473 19.8288 42.1643 19.8839 42.1852 19.9389C42.1957 19.9691 42.214 19.9966 42.2219 20.0281C42.246 20.1174 42.2583 20.2095 42.2585 20.302V47.2494L52.7415 41.2056V27.4298C52.7415 27.338 52.7546 27.245 52.7781 27.1572C52.7873 27.1257 52.8043 27.0982 52.8148 27.068C52.8357 27.013 52.854 26.9566 52.8828 26.9055C52.9025 26.8714 52.9313 26.8439 52.9535 26.8124C52.985 26.7705 53.0111 26.7272 53.0478 26.6905C53.0779 26.6604 53.1159 26.6381 53.1499 26.6119C53.1892 26.5804 53.2232 26.5464 53.2651 26.5214H53.2664L65.8478 19.2692C66.007 19.1773 66.1876 19.1289 66.3714 19.1289C66.5552 19.1289 66.7358 19.1773 66.895 19.2692L79.4751 26.5214C79.5196 26.5477 79.5536 26.5804 79.5929 26.6106C79.6256 26.6368 79.6636 26.6604 79.6937 26.6892C79.7303 26.7272 79.7565 26.7705 79.7879 26.8124C79.8115 26.8439 79.8403 26.8714 79.8586 26.9055C79.8887 26.9566 79.9057 27.013 79.9267 27.068C79.9385 27.0982 79.9555 27.1257 79.9633 27.1572V27.1572ZM77.9029 41.2056V29.2465L73.5005 31.784L67.4186 35.2903V47.2494L77.9042 41.2056H77.9029ZM65.3228 62.8393V50.8723L59.3404 54.2933L42.2572 64.0556V76.1353L65.3228 62.8393ZM17.0971 22.1174V62.8393L40.1601 76.134V64.0569L28.1115 57.2293L28.1076 57.2267L28.1024 57.2241C28.0618 57.2005 28.0278 57.1664 27.9898 57.1376C27.9571 57.1113 27.9191 57.0904 27.8903 57.0615L27.8877 57.0576C27.8536 57.0248 27.8301 56.9842 27.8013 56.9475C27.7751 56.9121 27.7437 56.882 27.7227 56.8453L27.7214 56.8413C27.6979 56.802 27.6835 56.7548 27.6665 56.7103C27.6494 56.6709 27.6272 56.6342 27.6167 56.5923V56.591C27.6036 56.5412 27.601 56.4887 27.5958 56.4376C27.5905 56.3983 27.5801 56.359 27.5801 56.3197V28.1612L21.4995 24.6537L17.0971 22.1187V22.1174ZM28.6299 14.2608L18.1483 20.302L28.6273 26.3432L39.1076 20.3007L28.6273 14.2608H28.6299ZM34.0808 51.9628L40.1614 48.4579V22.1174L35.7591 24.655L29.6772 28.1612V54.5017L34.0808 51.9628ZM66.3714 21.3899L55.8911 27.4311L66.3714 33.4723L76.8504 27.4298L66.3714 21.3899ZM65.3228 35.2903L59.2409 31.784L54.8386 29.2465V41.2056L60.9192 44.7105L65.3228 47.2494V35.2903ZM41.2074 62.2402L56.5796 53.4531L64.2638 49.0621L53.7913 43.0249L41.7336 49.9757L30.744 56.3105L41.2074 62.2402Z" fill="white"/>
</svg>
